<?xml version="1.0" standalone="no"?>
<!DOCTYPE svg PUBLIC "-//W3C//DTD SVG 20010904//EN"
 "http://www.w3.org/TR/2001/REC-SVG-20010904/DTD/svg10.dtd">
<svg version="1.0" xmlns="http://www.w3.org/2000/svg"
 width="488.000000pt" height="398.000000pt" viewBox="0 0 488.000000 398.000000"
 preserveAspectRatio="xMidYMid meet">

<defs>
  <filter id="aevionShadow" x="-20%" y="-20%" width="140%" height="140%">
    <feDropShadow dx="0" dy="10" stdDeviation="6" flood-color="#9CA3AF" flood-opacity="0.45"/>
  </filter>
</defs>

<g transform="translate(0.000000,398.000000) scale(0.100000,-0.100000)"
fill="#ffffff" stroke="none" filter="url(#aevionShadow)">
<path d="M2017 3203 c-16 -16 -4 -41 32 -69 22 -16 49 -49 61 -73 11 -24 54
-98 94 -165 40 -66 205 -355 366 -641 161 -286 303 -530 317 -542 23 -22 32
-23 194 -23 98 0 178 4 190 10 25 14 24 52 -3 104 -44 82 -691 1232 -715 1271
-13 22 -38 61 -54 88 l-29 47 -223 0 c-123 0 -227 -3 -230 -7z"/>
<path d="M2082 2823 c-23 -21 -612 -1066 -612 -1087 0 -8 10 -22 22 -30 19
-14 68 -16 328 -16 l306 0 78 54 c122 86 245 141 378 170 53 12 46 35 -68 237
-144 255 -126 258 -290 -36 -114 -201 -143 -245 -166 -245 -18 0 -49 42 -43
58 3 9 73 136 156 282 82 146 149 272 149 280 0 19 -169 322 -188 338 -21 16
-26 15 -50 -5z"/>
</g>
</svg>

